Coordinates
version=1
nRows=20
nColumns=33
inDegrees=yes

Units are S.I. units (second, meters, Newtons, ...)
Angles are in degrees.

endheader
time	ground_thorax_rot_x	ground_thorax_rot_y	ground_thorax_rot_z	ground_thorax_tx	ground_thorax_ty	ground_thorax_tz	clav_prot_r	clav_elev_r	scapula_abduction_r	scapula_elevation_r	scapula_upward_rot_r	scapula_winging_r	shoulder_elv_r	plane_of_elev_r	axial_rot_r	elbow_flexion_r	pro_sup_r	wrist_flex_r	wrist_dev_r	clav_prot_l	clav_elev_l	scapula_abduction_l	scapula_elevation_l	scapula_upward_rot_l	scapula_winging_l	shoulder_elv_l	plane_of_elev_l	axial_rot_l	elbow_flexion_l	pro_sup_l	wrist_flex_l	wrist_dev_l	
5.2700	-38.916890	-5.844996	13.594179	-242.073709	853.191011	8.794078	6.288590	-45.000000	37.579601	-45.000000	-35.859310	2416.528026	-2806.720602	33.149837	65.736321	373.501196	28.830412	18.636729	3.349400	14.517798	37.342732	-37.009338	-45.000000	-45.000000	-633.424995	1705.997736	137.678841	158.220970	741.622561	128.835019	-1.211021	-10.503350	
5.2800	-38.897604	-5.891167	13.651201	-242.021276	852.872334	8.884174	6.403418	-45.000000	37.576869	-45.000000	-36.033760	2416.524376	-2806.755042	33.179827	65.574245	373.468606	28.985714	18.629132	3.338792	14.505568	37.331337	-36.944885	-45.000000	-45.000000	-633.493211	1705.950801	137.678832	158.258372	741.626668	128.945900	-1.154714	-10.546294	
5.2900	-38.899458	-5.938272	13.698528	-241.937158	852.550655	8.976227	6.551251	-45.000000	37.562722	-45.000000	-36.236154	2416.496547	-2806.871336	33.283445	65.472162	373.368436	29.144180	18.643592	3.392396	14.533619	37.320556	-36.830707	-45.000000	-45.000000	-633.530721	1705.961820	137.591218	158.335601	741.596885	129.074199	-1.022414	-10.596212	
5.3000	-38.907480	-5.974567	13.740533	-241.781560	852.218861	9.073994	6.626885	-45.000000	37.556464	-45.000000	-36.348127	2416.495267	-2806.920287	33.322593	65.368537	373.362229	29.257990	18.657341	3.402658	14.545564	37.313186	-36.781860	-45.000000	-45.000000	-633.566326	1705.949607	137.561625	158.386984	741.610032	129.210291	-0.960296	-10.612259	
5.3100	-38.924735	-6.006096	13.777872	-241.555202	851.878814	9.176126	6.668420	-45.000000	37.557829	-45.000000	-36.399736	2416.509437	-2806.951686	33.334998	65.276672	373.381996	29.333203	18.672399	3.400528	14.554732	37.306623	-36.761132	-45.000000	-45.000000	-633.600847	1705.939597	137.547912	158.438291	741.630594	129.363063	-0.923223	-10.615801	
5.3200	-38.948286	-6.037415	13.812270	-241.253911	851.531012	9.281565	6.684500	-45.000000	37.565517	-45.000000	-36.401735	2416.530379	-2806.974070	33.338164	65.204286	373.414463	29.364679	18.697523	3.405977	14.566942	37.303758	-36.758418	-45.000000	-45.000000	-633.630976	1705.932013	137.537501	158.504371	741.656487	129.537700	-0.895833	-10.604574	
5.3300	-38.973826	-6.068445	13.844264	-240.883766	851.177699	9.387767	6.685531	-45.000000	37.584051	-45.000000	-36.353882	2416.563035	-2806.988239	33.323196	65.131124	373.444446	29.343709	18.722772	3.408303	14.572928	37.299297	-36.768163	-45.000000	-44.999999	-633.669241	1705.928842	137.533263	158.582338	741.678326	129.738128	-0.884398	-10.591997	
5.3400	-38.997809	-6.106511	13.876576	-240.453705	850.821624	9.491499	6.691627	-45.000000	37.611446	-45.000000	-36.285228	2416.591418	-2807.011846	33.320540	65.068962	373.452486	29.268167	18.761627	3.439331	14.579789	37.297346	-36.768279	-45.000000	-44.999999	-633.710375	1705.937023	137.513822	158.692969	741.693308	129.971037	-0.861430	-10.575962	
5.3500	-39.016023	-6.147585	13.905478	-239.969318	850.464616	9.589639	6.697099	-45.000000	37.654034	-45.000000	-36.182309	2416.625465	-2807.026606	33.305709	64.991980	373.454320	29.122718	18.800832	3.470672	14.572601	37.289447	-36.763804	-45.000000	-44.999998	-633.763795	1705.953862	137.493466	158.818398	741.709129	130.239034	-0.853505	-10.561509	
5.3600	-39.030488	-6.193429	13.930509	-239.431862	850.107826	9.679262	6.713044	-45.000000	37.705714	-45.000000	-36.065493	2416.651388	-2807.046154	33.306261	64.919282	373.449070	28.903578	18.856267	3.531807	14.557380	37.282061	-36.745682	-45.000000	-44.999997	-633.817607	1705.986910	137.455785	158.974781	741.730208	130.551100	-0.839436	-10.538435	
5.3700	-39.040909	-6.239375	13.949336	-238.838687	849.751411	9.757841	6.733060	-45.000000	37.772340	-45.000000	-35.921807	2416.679982	-2807.064483	33.299289	64.833572	373.441846	28.600632	18.912551	3.594977	14.529801	37.267113	-36.722301	-45.000000	-44.999994	-633.878537	1706.036006	137.411714	159.144448	741.756083	130.912742	-0.837462	-10.516249	
5.3800	-39.046299	-6.287700	13.970369	-238.183551	849.394118	9.823462	6.763491	-45.000000	37.846638	-45.000000	-35.763969	2416.703658	-2807.086930	33.300936	64.750211	373.426599	28.216998	18.979794	3.682785	14.491878	37.253866	-36.700025	-45.000000	-44.999990	-633.942264	1706.094863	137.362233	159.340799	741.785559	131.331656	-0.833070	-10.485155	
5.3900	-39.048823	-6.319829	13.983244	-237.457927	849.033010	9.874971	6.793969	-45.000000	37.913939	-45.000000	-35.572692	2416.730740	-2807.111946	33.302800	64.655146	373.400954	27.745444	19.042884	3.770707	14.448631	37.236981	-36.712953	-45.000000	-44.999981	-634.000858	1706.143156	137.315044	159.546444	741.819343	131.816310	-0.840075	-10.455378	
5.4000	-39.047890	-6.341171	13.997023	-236.651552	848.663286	9.912096	6.825830	-45.000000	37.967766	-45.000000	-35.357237	2416.755656	-2807.140548	33.318717	64.559801	373.365330	27.190827	19.110085	3.875218	14.402468	37.223476	-36.761796	-45.000000	-44.999967	-634.054852	1706.177500	137.272507	159.768509	741.859839	132.375138	-0.848549	-10.418233	
5.4100	-39.045221	-6.346048	14.005438	-235.754236	848.278784	9.935365	6.845972	-45.000000	38.008929	-45.000000	-35.104042	2416.789204	-2807.171345	33.332697	64.451789	373.317737	26.551066	19.169819	3.977548	14.366355	37.211446	-36.854323	-45.000000	-44.999940	-634.101701	1706.192525	137.232434	159.990373	741.905978	133.016071	-0.869478	-10.382948	
5.4200	-39.037140	-6.357921	14.022856	-234.756061	847.872119	9.946011	6.863782	-45.000000	38.053199	-45.000000	-34.831673	2416.825825	-2807.203837	33.351462	64.343153	373.263930	25.840684	19.231583	4.095111	14.331027	37.201677	-36.956007	-45.000000	-44.999893	-634.155071	1706.206419	137.194040	160.224433	741.958420	133.739921	-0.892682	-10.340222	
5.4300	-39.026677	-6.366698	14.037456	-233.648701	847.435416	9.945680	6.865929	-45.000000	38.096159	-45.000000	-34.525321	2416.874881	-2807.236391	33.362836	64.222672	373.204853	25.061811	19.288925	4.216813	14.315174	37.198705	-37.078085	-45.000000	-44.999809	-634.204626	1706.212434	137.147777	160.458656	742.017322	134.549971	-0.927110	-10.298286	
5.4400	-39.015420	-6.382716	14.054774	-232.425175	846.960482	9.936147	6.847148	-45.000000	38.143950	-45.000000	-34.194988	2416.937923	-2807.271490	33.369185	64.098342	373.143533	24.222255	19.348403	4.356377	14.329066	37.208174	-37.201509	-45.000000	-44.999657	-634.253107	1706.227948	137.084812	160.692368	742.078052	135.447891	-0.966029	-10.252144	
5.4500	-39.009252	-6.390323	14.062165	-231.080648	846.439389	9.918993	6.786591	-45.000000	38.188600	-45.000000	-33.821202	2417.025418	-2807.311762	33.356119	63.967760	373.077940	23.311505	19.409073	4.515472	14.409886	37.245408	-37.345901	-45.000000	-44.999386	-634.280016	1706.242842	136.988785	160.907266	742.136416	136.446516	-1.011721	-10.205813	
5.4600	-39.006215	-6.402162	14.069671	-229.611473	845.864283	9.895416	6.692812	-45.000000	38.235830	-45.000000	-33.412505	2417.130512	-2807.358272	33.328605	63.843717	373.013542	22.322533	19.475154	4.705734	14.543626	37.305745	-37.500929	-45.000000	-44.998900	-634.299138	1706.262513	136.875361	161.107960	742.192632	137.555513	-1.056940	-10.152875	
